<svg width="380" height="80" viewBox="0 0 380 80" fill="none" xmlns="http://www.w3.org/2000/svg">
<path d="M4.51429 41V10.4545H22.8296V13.7358H8.21316V24.0568H21.4575V27.3381H8.21316V41H4.51429ZM41.6894 31.6335V18.0909H45.2093V41H41.6894V37.1222H41.4507C40.9138 38.2855 40.0786 39.2749 38.945 40.0902C37.8115 40.8956 36.3797 41.2983 34.6496 41.2983C33.2178 41.2983 31.945 40.9851 30.8314 40.3587C29.7178 39.7223 28.8428 38.7678 28.2064 37.495C27.57 36.2124 27.2519 34.5966 27.2519 32.6477V18.0909H30.7718V32.4091C30.7718 34.0795 31.2391 35.4119 32.1737 36.4062C33.1183 37.4006 34.3215 37.8977 35.7831 37.8977C36.6581 37.8977 37.548 37.674 38.4529 37.2266C39.3676 36.7791 40.1333 36.093 40.7497 35.1683C41.3762 34.2436 41.6894 33.0653 41.6894 31.6335ZM61.6192 18.0909V21.0739H49.7471V18.0909H61.6192ZM53.2073 12.6023H56.7272V34.4375C56.7272 35.4318 56.8714 36.1776 57.1597 36.6747C57.458 37.1619 57.8358 37.4901 58.2932 37.6591C58.7606 37.8182 59.2528 37.8977 59.7698 37.8977C60.1576 37.8977 60.4758 37.8778 60.7243 37.8381C60.9729 37.7884 61.1718 37.7486 61.3209 37.7188L62.0368 40.8807C61.7982 40.9702 61.4651 41.0597 61.0376 41.1491C60.61 41.2486 60.0681 41.2983 59.4118 41.2983C58.4175 41.2983 57.4431 41.0845 56.4885 40.657C55.5439 40.2294 54.7584 39.5781 54.132 38.7031C53.5155 37.8281 53.2073 36.7244 53.2073 35.392V12.6023ZM81.3515 31.6335V18.0909H84.8714V41H81.3515V37.1222H81.1128C80.5759 38.2855 79.7407 39.2749 78.6072 40.0902C77.4736 40.8956 76.0418 41.2983 74.3117 41.2983C72.8799 41.2983 71.6072 40.9851 70.4935 40.3587C69.3799 39.7223 68.5049 38.7678 67.8685 37.495C67.2322 36.2124 66.914 34.5966 66.914 32.6477V18.0909H70.4339V32.4091C70.4339 34.0795 70.9012 35.4119 71.8358 36.4062C72.7805 37.4006 73.9836 37.8977 75.4452 37.8977C76.3202 37.8977 77.2101 37.674 78.115 37.2266C79.0297 36.7791 79.7954 36.093 80.4118 35.1683C81.0383 34.2436 81.3515 33.0653 81.3515 31.6335ZM91.3183 41V18.0909H94.7188V21.5511H94.9575C95.3751 20.4176 96.1308 19.4979 97.2245 18.7919C98.3183 18.0859 99.5512 17.733 100.923 17.733C101.182 17.733 101.505 17.7379 101.893 17.7479C102.281 17.7578 102.574 17.7727 102.773 17.7926V21.3722C102.653 21.3423 102.38 21.2976 101.953 21.2379C101.535 21.1683 101.092 21.1335 100.625 21.1335C99.5115 21.1335 98.5171 21.3672 97.6421 21.8345C96.7771 22.2919 96.091 22.9283 95.5839 23.7436C95.0867 24.549 94.8382 25.4687 94.8382 26.5028V41H91.3183ZM115.853 41.4773C113.646 41.4773 111.742 40.9901 110.141 40.0156C108.55 39.0312 107.322 37.6591 106.457 35.8991C105.602 34.1293 105.174 32.071 105.174 29.7244C105.174 27.3778 105.602 25.3097 106.457 23.5199C107.322 21.7202 108.525 20.3182 110.066 19.3139C111.617 18.2997 113.427 17.7926 115.495 17.7926C116.688 17.7926 117.867 17.9915 119.03 18.3892C120.193 18.7869 121.252 19.4332 122.207 20.3281C123.161 21.2131 123.922 22.3864 124.489 23.848C125.055 25.3097 125.339 27.1094 125.339 29.2472V30.7386H107.68V27.696H121.759C121.759 26.4034 121.501 25.25 120.984 24.2358C120.477 23.2216 119.751 22.4212 118.806 21.8345C117.872 21.2479 116.768 20.9545 115.495 20.9545C114.093 20.9545 112.88 21.3026 111.856 21.9986C110.842 22.6847 110.061 23.5795 109.514 24.6832C108.967 25.7869 108.694 26.9702 108.694 28.233V30.2614C108.694 31.9915 108.992 33.4581 109.589 34.6612C110.195 35.8544 111.036 36.7642 112.109 37.3906C113.183 38.0071 114.431 38.3153 115.853 38.3153C116.778 38.3153 117.613 38.1861 118.359 37.9276C119.114 37.6591 119.766 37.2614 120.313 36.7344C120.859 36.1974 121.282 35.5312 121.58 34.7358L124.981 35.6903C124.623 36.8438 124.021 37.858 123.176 38.733C122.331 39.598 121.287 40.2741 120.044 40.7614C118.801 41.2386 117.404 41.4773 115.853 41.4773Z" fill="#f59e0b"/>
<path d="M149.247 41.5369C147.796 41.5369 146.478 41.2635 145.295 40.7166C144.112 40.1598 143.172 39.3594 142.476 38.3153C141.78 37.2614 141.432 35.9886 141.432 34.4972C141.432 33.1847 141.69 32.1207 142.207 31.3054C142.725 30.4801 143.416 29.8338 144.281 29.3665C145.146 28.8991 146.1 28.5511 147.144 28.3224C148.198 28.0838 149.257 27.8949 150.321 27.7557C151.713 27.5767 152.842 27.4425 153.707 27.353C154.582 27.2536 155.218 27.0895 155.616 26.8608C156.024 26.6321 156.227 26.2344 156.227 25.6676V25.5483C156.227 24.0767 155.825 22.9332 155.019 22.1179C154.224 21.3026 153.016 20.8949 151.395 20.8949C149.715 20.8949 148.397 21.2628 147.443 21.9986C146.488 22.7344 145.817 23.5199 145.429 24.3551L142.088 23.1619C142.685 21.7699 143.48 20.6861 144.475 19.9105C145.479 19.125 146.573 18.5781 147.756 18.2699C148.949 17.9517 150.122 17.7926 151.276 17.7926C152.011 17.7926 152.857 17.8821 153.811 18.0611C154.776 18.2301 155.705 18.5831 156.6 19.12C157.505 19.657 158.256 20.4673 158.852 21.5511C159.449 22.6349 159.747 24.0866 159.747 25.9062V41H156.227V37.8977H156.048C155.81 38.3949 155.412 38.9268 154.855 39.4936C154.298 40.0604 153.558 40.5426 152.633 40.9403C151.708 41.3381 150.58 41.5369 149.247 41.5369ZM149.784 38.375C151.176 38.375 152.35 38.1016 153.304 37.5547C154.269 37.0078 154.994 36.3018 155.482 35.4368C155.979 34.5717 156.227 33.6619 156.227 32.7074V29.4858C156.078 29.6648 155.75 29.8288 155.243 29.978C154.746 30.1172 154.169 30.2415 153.513 30.3509C152.867 30.4503 152.235 30.5398 151.619 30.6193C151.012 30.6889 150.52 30.7486 150.142 30.7983C149.227 30.9176 148.372 31.1115 147.577 31.38C146.791 31.6385 146.155 32.0312 145.668 32.5582C145.19 33.0753 144.952 33.7812 144.952 34.6761C144.952 35.8991 145.404 36.8239 146.309 37.4503C147.224 38.0668 148.382 38.375 149.784 38.375ZM169.692 27.2188V41H166.172V18.0909H169.572V21.6705H169.871C170.408 20.5071 171.223 19.5724 172.317 18.8665C173.41 18.1506 174.822 17.7926 176.552 17.7926C178.104 17.7926 179.461 18.1108 180.624 18.7472C181.788 19.3736 182.692 20.3281 183.339 21.6108C183.985 22.8835 184.308 24.4943 184.308 26.4432V41H180.788V26.6818C180.788 24.8821 180.321 23.4801 179.386 22.4759C178.452 21.4616 177.169 20.9545 175.538 20.9545C174.415 20.9545 173.41 21.1982 172.525 21.6854C171.65 22.1726 170.959 22.8835 170.452 23.8182C169.945 24.7528 169.692 25.8864 169.692 27.2188ZM199.391 41.4773C197.482 41.4773 195.796 40.995 194.335 40.0305C192.873 39.0561 191.729 37.6839 190.904 35.9141C190.079 34.1342 189.666 32.0312 189.666 29.6051C189.666 27.1989 190.079 25.1108 190.904 23.3409C191.729 21.571 192.878 20.2038 194.35 19.2393C195.821 18.2749 197.521 17.7926 199.45 17.7926C200.942 17.7926 202.12 18.0412 202.985 18.5384C203.86 19.0256 204.526 19.5824 204.984 20.2088C205.451 20.8253 205.814 21.3324 206.073 21.7301H206.371V10.4545H209.891V41H206.49V37.4801H206.073C205.814 37.8977 205.446 38.4247 204.969 39.0611C204.492 39.6875 203.81 40.2493 202.926 40.7464C202.041 41.2337 200.862 41.4773 199.391 41.4773ZM199.868 38.3153C201.28 38.3153 202.473 37.9474 203.448 37.2116C204.422 36.4659 205.163 35.4368 205.67 34.1243C206.177 32.8018 206.43 31.2756 206.43 29.5455C206.43 27.8352 206.182 26.3388 205.685 25.0561C205.188 23.7635 204.452 22.7592 203.477 22.0433C202.503 21.3175 201.3 20.9545 199.868 20.9545C198.377 20.9545 197.134 21.3374 196.139 22.103C195.155 22.8587 194.414 23.8878 193.917 25.1903C193.43 26.483 193.186 27.9347 193.186 29.5455C193.186 31.1761 193.435 32.6577 193.932 33.9901C194.439 35.3125 195.185 36.3665 196.169 37.152C197.163 37.9276 198.396 38.3153 199.868 38.3153Z" fill="#a855f7"/>
<path d="M229.116 41V10.4545H247.431V13.7358H232.815V24.0568H246.059V27.3381H232.815V41H229.116ZM260.914 41.4773C258.846 41.4773 257.031 40.9851 255.47 40.0007C253.919 39.0163 252.706 37.6392 251.831 35.8693C250.966 34.0994 250.533 32.0312 250.533 29.6648C250.533 27.2784 250.966 25.1953 251.831 23.4155C252.706 21.6357 253.919 20.2536 255.47 19.2692C257.031 18.2848 258.846 17.7926 260.914 17.7926C262.982 17.7926 264.792 18.2848 266.343 19.2692C267.904 20.2536 269.117 21.6357 269.982 23.4155C270.857 25.1953 271.295 27.2784 271.295 29.6648C271.295 32.0312 270.857 34.0994 269.982 35.8693C269.117 37.6392 267.904 39.0163 266.343 40.0007C264.792 40.9851 262.982 41.4773 260.914 41.4773ZM260.914 38.3153C262.485 38.3153 263.778 37.9126 264.792 37.1072C265.806 36.3018 266.557 35.2429 267.044 33.9304C267.531 32.6179 267.775 31.196 267.775 29.6648C267.775 28.1335 267.531 26.7067 267.044 25.3842C266.557 24.0618 265.806 22.9929 264.792 22.1776C263.778 21.3622 262.485 20.9545 260.914 20.9545C259.343 20.9545 258.051 21.3622 257.036 22.1776C256.022 22.9929 255.271 24.0618 254.784 25.3842C254.297 26.7067 254.053 28.1335 254.053 29.6648C254.053 31.196 254.297 32.6179 254.784 33.9304C255.271 35.2429 256.022 36.3018 257.036 37.1072C258.051 37.9126 259.343 38.3153 260.914 38.3153ZM276.668 41V18.0909H280.068V21.5511H280.307C280.725 20.4176 281.48 19.4979 282.574 18.7919C283.668 18.0859 284.901 17.733 286.273 17.733C286.532 17.733 286.855 17.7379 287.242 17.7479C287.63 17.7578 287.924 17.7727 288.122 17.7926V21.3722C288.003 21.3423 287.73 21.2976 287.302 21.2379C286.885 21.1683 286.442 21.1335 285.975 21.1335C284.861 21.1335 283.867 21.3672 282.992 21.8345C282.127 22.2919 281.441 22.9283 280.934 23.7436C280.436 24.549 280.188 25.4687 280.188 26.5028V41H276.668ZM303.693 18.0909V21.0739H291.821V18.0909H303.693ZM295.282 12.6023H298.801V34.4375C298.801 35.4318 298.946 36.1776 299.234 36.6747C299.532 37.1619 299.91 37.4901 300.367 37.6591C300.835 37.8182 301.327 37.8977 301.844 37.8977C302.232 37.8977 302.55 37.8778 302.799 37.8381C303.047 37.7884 303.246 37.7486 303.395 37.7188L304.111 40.8807C303.872 40.9702 303.539 41.0597 303.112 41.1491C302.684 41.2486 302.142 41.2983 301.486 41.2983C300.492 41.2983 299.517 41.0845 298.563 40.657C297.618 40.2294 296.833 39.5781 296.206 38.7031C295.59 37.8281 295.282 36.7244 295.282 35.392V12.6023ZM323.426 31.6335V18.0909H326.946V41H323.426V37.1222H323.187C322.65 38.2855 321.815 39.2749 320.681 40.0902C319.548 40.8956 318.116 41.2983 316.386 41.2983C314.954 41.2983 313.681 40.9851 312.568 40.3587C311.454 39.7223 310.579 38.7678 309.943 37.495C309.306 36.2124 308.988 34.5966 308.988 32.6477V18.0909H312.508V32.4091C312.508 34.0795 312.975 35.4119 313.91 36.4062C314.855 37.4006 316.058 37.8977 317.519 37.8977C318.394 37.8977 319.284 37.674 320.189 37.2266C321.104 36.7791 321.87 36.093 322.486 35.1683C323.112 34.2436 323.426 33.0653 323.426 31.6335ZM336.912 27.2188V41H333.392V18.0909H336.793V21.6705H337.091C337.628 20.5071 338.444 19.5724 339.537 18.8665C340.631 18.1506 342.043 17.7926 343.773 17.7926C345.324 17.7926 346.682 18.1108 347.845 18.7472C349.008 19.3736 349.913 20.3281 350.559 21.6108C351.206 22.8835 351.529 24.4943 351.529 26.4432V41H348.009V26.6818C348.009 24.8821 347.542 23.4801 346.607 22.4759C345.672 21.4616 344.39 20.9545 342.759 20.9545C341.635 20.9545 340.631 21.1982 339.746 21.6854C338.871 22.1726 338.18 22.8835 337.673 23.8182C337.166 24.7528 336.912 25.8864 336.912 27.2188ZM367.566 41.4773C365.359 41.4773 363.454 40.9901 361.854 40.0156C360.263 39.0312 359.035 37.6591 358.17 35.8991C357.315 34.1293 356.887 32.071 356.887 29.7244C356.887 27.3778 357.315 25.3097 358.17 23.5199C359.035 21.7202 360.238 20.3182 361.779 19.3139C363.33 18.2997 365.14 17.7926 367.208 17.7926C368.401 17.7926 369.579 17.9915 370.743 18.3892C371.906 18.7869 372.965 19.4332 373.92 20.3281C374.874 21.2131 375.635 22.3864 376.202 23.848C376.768 25.3097 377.052 27.1094 377.052 29.2472V30.7386H359.393V27.696H373.472C373.472 26.4034 373.214 25.25 372.697 24.2358C372.19 23.2216 371.464 22.4212 370.519 21.8345C369.584 21.2479 368.481 20.9545 367.208 20.9545C365.806 20.9545 364.593 21.3026 363.569 21.9986C362.555 22.6847 361.774 23.5795 361.227 24.6832C360.68 25.7869 360.407 26.9702 360.407 28.233V30.2614C360.407 31.9915 360.705 33.4581 361.302 34.6612C361.908 35.8544 362.748 36.7642 363.822 37.3906C364.896 38.0071 366.144 38.3153 367.566 38.3153C368.491 38.3153 369.326 38.1861 370.072 37.9276C370.827 37.6591 371.479 37.2614 372.025 36.7344C372.572 36.1974 372.995 35.5312 373.293 34.7358L376.694 35.6903C376.336 36.8438 375.734 37.858 374.889 38.733C374.044 39.598 373 40.2741 371.757 40.7614C370.514 41.2386 369.117 41.4773 367.566 41.4773Z" fill="#0ea5e9"/>
<path opacity="0.7" d="M90 54H165" stroke="#f59e0b" stroke-width="1.5"/>
<path opacity="0.7" d="M215 54H290" stroke="#0ea5e9" stroke-width="1.5"/>
<path d="M175 56C176.105 56 177 55.1046 177 54C177 52.8954 176.105 52 175 52C173.895 52 173 52.8954 173 54C173 55.1046 173.895 56 175 56Z" fill="#a855f7"/>
<path d="M205 56C206.105 56 207 55.1046 207 54C207 52.8954 206.105 52 205 52C203.895 52 203 52.8954 203 54C203 55.1046 203.895 56 205 56Z" fill="#0ea5e9"/>
</svg>
