<svg xmlns="http://www.w3.org/2000/svg" viewBox="0 0 1024 1024" fill="none" role="img" aria-label="Future & Fortune Solutions logo">
  <defs>
    <linearGradient id="g1" x1="0" y1="0" x2="1" y2="1">
      <stop offset="0%" stop-color="#0ea5e9"/>
      <stop offset="100%" stop-color="#a855f7"/>
    </linearGradient>
  </defs>
  <rect width="1024" height="1024" fill="none"/>
  <!-- Circle mark inspired by provided logo colors -->
  <circle cx="512" cy="480" r="280" fill="url(#g1)" opacity="0.15"/>
  <circle cx="512" cy="480" r="240" fill="url(#g1)" opacity="0.25"/>
  
  <!-- HR monogram -->
  <g fill="#FFFFFF">
    <path d="M360 648V312h64v136h112V312h64v336h-64V516H424v132h-64z"/>
    <path d="M624 312h128c82 0 128 44 128 120s-46 120-128 120h-64v96h-64V312zm64 56v128h64c44 0 64-24 64-64s-20-64-64-64h-64z"/>
  </g>
  
  <!-- Swoosh element -->
  <path d="M544 760c120-160 200-240 336-296-160 16-256 80-392 248 24 16 40 32 56 48z" fill="#0ea5e9" opacity="0.6"/>
</svg>
